<?xml version="1.0" encoding="utf-8"?>
<!-- Generator: Adobe Illustrator 19.0.0, SVG Export Plug-In . SVG Version: 6.00 Build 0)  -->
<svg version="1.1" id="Layer_1" xmlns="http://www.w3.org/2000/svg" xmlns:xlink="http://www.w3.org/1999/xlink" x="0px" y="0px"
	 width="200px" height="200px" viewBox="0 0 200 200" style="enable-background:new 0 0 200 200;" xml:space="preserve">
<style type="text/css">
	.st0{fill:#222525;}
	.st1{fill:#E43533;}
	.st2{fill:#FFFFFF;}
	.st3{fill:#241F20;}
	.st4{fill:#F9A11F;}
	.st5{fill:#E27E26;}
	.st6{fill:#981C1F;}
	.st7{fill:#C72527;}
	.st8{fill:#AC2224;}
	.st9{fill:#BB2526;}
	.st10{fill:#CE2929;}
</style>
<g id="XMLID_23_">
	<g id="XMLID_45_">
		<path id="XMLID_21_" class="st0" d="M134,100.5l0.5,6.6c0,0.4,0.3,0.6,0.7,0.6h2.1c0.5,0,0.9-0.4,0.9-0.9l-0.5-7.3L134,100.5z"/>
		<path id="XMLID_20_" class="st0" d="M134.7,107.3l9.6,17.9c0,0,2.6,0.8,3.4-1.6l-9.5-16.9l-2.2-2L134.7,107.3z"/>
		<path id="XMLID_19_" class="st0" d="M158.9,125.6c-0.4-0.4-1-0.7-1.6-0.8c-2.4-0.4-9-1.7-10.9-3.1c-2.3-1.6-3.7,0.9-3.7,0.9
			s-1.8,3.5-5.3,6c-1.9,1.4-3.2,3.5-3.3,5.8c0,0.1,0,0.2,0,0.3c0,0.2,0.3,0.2,0.3,0c0.6-1.9,1.9-2.7,2.7-3.1
			c0.4-0.2,0.8-0.5,1.2-0.8c1.5-1.3,5.1-4.3,7.4-4.4c2.9-0.2,7,3,7,3s0.8,0.6,1.4,1.3c0.1,0.2,0.4,0,0.3-0.2
			c-0.1-0.4-0.3-0.9-0.6-1.3c-0.3-0.5-0.6-0.9-1.1-1.2l-3.4-2.6c0,0,5.2-0.4,8.3,0.9c0.3,0.1,0.6,0.2,0.9,0.3
			c0.4,0.1,1.1,0.4,1.7,1.1c0.1,0.1,0.2,0,0.1-0.1C160.2,127.1,159.7,126.4,158.9,125.6z"/>
	</g>
	<g id="XMLID_41_">
		<path id="XMLID_18_" class="st0" d="M118.4,94.2l-0.5,6.5c0,0.3,0.2,0.7,0.5,0.7l1.8,0.3c0.4,0.1,0.9-0.3,0.9-0.8l0.7-7.2
			L118.4,94.2z"/>
		<path id="XMLID_17_" class="st0" d="M118,101l6,19c0,0,2.2,1.2,3.3-1l-6.1-18l-1.7-2.3L118,101z"/>
		<path id="XMLID_16_" class="st0" d="M137.1,122.6c-0.3-0.5-0.8-0.9-1.3-1.1c-2.1-0.8-7.8-3.1-9.3-4.7c-1.8-2-3.5,0.3-3.5,0.3
			s-2.1,3.2-5.6,5c-1.9,1-3.3,2.9-3.8,5.1c0,0.1,0,0.2,0,0.3c0,0.2,0.2,0.3,0.3,0.1c0.8-1.7,2.1-2.3,2.9-2.6
			c0.4-0.1,0.8-0.3,1.2-0.6c1.5-1,5.2-3.4,7.2-3.1c2.7,0.3,5.8,4,5.8,4s0.6,0.7,1,1.5c0.1,0.2,0.3,0.1,0.3-0.1
			c0-0.4-0.1-0.9-0.3-1.4s-0.5-1-0.8-1.4l-2.7-3c0,0,4.7,0.4,7.3,2.2c0.3,0.2,0.5,0.3,0.8,0.5c0.4,0.2,0.9,0.6,1.3,1.3
			c0,0.1,0.1,0,0.1-0.1C138,124.3,137.7,123.5,137.1,122.6z"/>
	</g>
	<g id="XMLID_24_">
		<path id="XMLID_15_" class="st1" d="M178.5,54.8c0.8-3.5,0.8-7.4,2.7-9.9l2.7-11.4c0,0,5.3-12.6-42.9-28.8l13.8,9l-10.2-2.3
			l11.7,8.3l-8.9-1.9l4,4.3c0,0-54.4,41.1-98.8,87.2c0,0,16.1-0.9,41.3-6.3C94,102.9,161.5,127.3,178.5,54.8z"/>
		<path id="XMLID_14_" class="st0" d="M181.2,44.9l2.7-11.4c0,0,1.5-3.5-4.1-9.1c-0.1,1.7-1.2,3.4-2.7,4.2c-2.1,1.1-4.6,0.7-6.9,0.7
			c-2.4,0-5.1,0.6-6,2.8c-1,2.3,0.7,4.9,2.7,6.3c2,1.5,4.4,2.4,6,4.3c2.1,2.5,2.3,6,1.7,9.2c-0.6,3.2-1.9,6.2-2.4,9.4
			c-0.5,3.4-0.2,6.9,1,10.1c2.1-4.9,4-10.4,5.4-16.6C179.3,51.3,179.4,47.4,181.2,44.9z"/>
		<g id="XMLID_35_">
			<path id="XMLID_13_" class="st2" d="M170.3,37.8c-2,0-3.6-1.6-3.6-3.6s1.6-3.6,3.6-3.6s3.6,1.6,3.6,3.6S172.3,37.8,170.3,37.8z"
				/>
			<circle id="XMLID_12_" class="st3" cx="170.3" cy="34.2" r="2.6"/>
			<circle id="XMLID_11_" class="st2" cx="171.6" cy="34.1" r="0.5"/>
		</g>
		<path id="XMLID_10_" class="st4" d="M174.5,39.1l9.4-7.9c0,0,10.5,7,9.4,10.1h-12.1L174.5,39.1z"/>
		<path id="XMLID_9_" class="st5" d="M180.5,46l12.7-4.7c-1-1.1-2.9-1.4-4.4-1.3c-1.5,0.1-3.1,0.3-4.5-0.2c-0.8-0.3-1.4-0.8-2.2-1.2
			c-2.4-1.3-5.5-1-7.7,0.5L180.5,46z"/>
		<path id="XMLID_8_" class="st0" d="M152.3,66.8c0,0-57.5,24.6-84.2,36.9c-26.7,12.2,43.5-35.8,43.5-35.8L152.3,66.8z"/>
		<path id="XMLID_7_" class="st6" d="M80.3,82.2c0,0-53.5,48-75.8,68.8c0,0,1.9,1,11.2-3.3L105,70.3L80.3,82.2z"/>
		<path id="XMLID_6_" class="st7" d="M18.5,138.2c0,0,68.4-49,88.4-58.5l-4.8-9.3L80.4,82.3L18.5,138.2z"/>
		<path id="XMLID_5_" class="st6" d="M75.6,82.3c0,0-4.1,3.9-9.7,10c-1.3,1.4,0.1,3.6,1.9,3.1c17.7-4.7,70.1-19.3,87.8-31.3l-2-10
			L79.9,80L75.6,82.3z"/>
		<path id="XMLID_4_" class="st8" d="M88.9,66.4c0,0-11.1,10.9-16.5,17.4c-0.9,1.1,0.2,2.7,1.6,2.2l73.6-26.3l-22.2-5.1L88.9,66.4z"
			/>
		<path id="XMLID_3_" class="st9" d="M110.1,51.3c0,0-15.9,9.6-30.3,23.1c-1.2,1.1,0.1,3,1.5,2.4l54-22L110.1,51.3z"/>
		<path id="XMLID_2_" class="st0" d="M159.5,57.8c0,0-3.8-12.5-23.6-23.7l-2.4,2v5.7L159.5,57.8z"/>
		<path id="XMLID_1_" class="st10" d="M133.6,36.1c0,0-16.8,10.9-28.6,18.4c-1.6,1-0.6,3.5,1.3,3.1l9.4-2.1c0.3-0.1,0.5,0.4,0.2,0.5
			l-1.4,0.7c-1.4,0.7-0.8,2.9,0.8,2.7l10.4-1.3c0.5-0.1,0.8,0.7,0.3,0.9l-2.9,1.5c-1.4,0.7-0.7,2.8,0.8,2.5l11.6-2
			c0.6-0.1,0.9,0.8,0.4,1.1l-4.9,2.6c-0.7,0.4-0.3,1.4,0.4,1.3l12.5-1.8l-4,3.4c-1,0.8-0.3,2.4,1,2.3l9.8-0.9
			c2.9-0.3,5.6-1.6,7.3-3.9C161.8,60.4,162.3,50.8,133.6,36.1z"/>
	</g>
</g>
</svg>
