<?xml version="1.0" encoding="utf-8"?>
<!-- Generator: Adobe Illustrator 19.0.0, SVG Export Plug-In . SVG Version: 6.00 Build 0)  -->
<svg version="1.1" id="Layer_1" xmlns="http://www.w3.org/2000/svg" xmlns:xlink="http://www.w3.org/1999/xlink" x="0px" y="0px"
	 width="200px" height="200px" viewBox="0 0 200 200" style="enable-background:new 0 0 200 200;" xml:space="preserve">
<style type="text/css">
	.st0{display:none;}
	.st1{display:inline;}
	.st2{fill:#222525;}
	.st3{fill:#E43533;}
	.st4{fill:#FFFFFF;}
	.st5{fill:#241F20;}
	.st6{fill:#F9A11F;}
	.st7{fill:#E27E26;}
	.st8{fill:#981C1F;}
	.st9{fill:#C72527;}
	.st10{fill:#AC2224;}
	.st11{fill:#BB2526;}
	.st12{fill:#CE2929;}
	.st13{fill:#555759;}
	.st14{fill:#CCC25A;}
	.st15{fill:#427183;}
	.st16{fill:#D9DDDB;}
	.st17{fill:#787B7C;}
	.st18{fill:#A59453;}
</style>
<g id="Layer_1_1_" class="st0">
	<g id="XMLID_23_" class="st1">
		<g id="XMLID_45_">
			<path id="XMLID_21_" class="st2" d="M137,120.5l0.5,6.6c0,0.4,0.3,0.6,0.7,0.6h2.1c0.5,0,0.9-0.4,0.9-0.9l-0.5-7.3L137,120.5z"/>
			<path id="XMLID_20_" class="st2" d="M137.7,127.3l9.6,17.9c0,0,2.6,0.8,3.4-1.6l-9.5-16.9l-2.2-2L137.7,127.3z"/>
			<path id="XMLID_19_" class="st2" d="M161.9,145.6c-0.4-0.4-1-0.7-1.6-0.8c-2.4-0.4-9-1.7-10.9-3.1c-2.3-1.6-3.7,0.9-3.7,0.9
				s-1.8,3.5-5.3,6c-1.9,1.4-3.2,3.5-3.3,5.8c0,0.1,0,0.2,0,0.3c0,0.2,0.3,0.2,0.3,0c0.6-1.9,1.9-2.7,2.7-3.1
				c0.4-0.2,0.8-0.5,1.2-0.8c1.5-1.3,5.1-4.3,7.4-4.4c2.9-0.2,7,3,7,3s0.8,0.6,1.4,1.3c0.1,0.2,0.4,0,0.3-0.2
				c-0.1-0.4-0.3-0.9-0.6-1.3c-0.3-0.5-0.6-0.9-1.1-1.2l-3.4-2.6c0,0,5.2-0.4,8.3,0.9c0.3,0.1,0.6,0.2,0.9,0.3
				c0.4,0.1,1.1,0.4,1.7,1.1c0.1,0.1,0.2,0,0.1-0.1C163.2,147.1,162.7,146.4,161.9,145.6z"/>
		</g>
		<g id="XMLID_41_">
			<path id="XMLID_18_" class="st2" d="M121.4,114.2l-0.5,6.5c0,0.3,0.2,0.7,0.5,0.7l1.8,0.3c0.4,0.1,0.9-0.3,0.9-0.8l0.7-7.2
				L121.4,114.2z"/>
			<path id="XMLID_17_" class="st2" d="M121,121l6,19c0,0,2.2,1.2,3.3-1l-6.1-18l-1.7-2.3L121,121z"/>
			<path id="XMLID_16_" class="st2" d="M140.1,142.6c-0.3-0.5-0.8-0.9-1.3-1.1c-2.1-0.8-7.8-3.1-9.3-4.7c-1.8-2-3.5,0.3-3.5,0.3
				s-2.1,3.2-5.6,5c-1.9,1-3.3,2.9-3.8,5.1c0,0.1,0,0.2,0,0.3c0,0.2,0.2,0.3,0.3,0.1c0.8-1.7,2.1-2.3,2.9-2.6
				c0.4-0.1,0.8-0.3,1.2-0.6c1.5-1,5.2-3.4,7.2-3.1c2.7,0.3,5.8,4,5.8,4s0.6,0.7,1,1.5c0.1,0.2,0.3,0.1,0.3-0.1
				c0-0.4-0.1-0.9-0.3-1.4s-0.5-1-0.8-1.4l-2.7-3c0,0,4.7,0.4,7.3,2.2c0.3,0.2,0.5,0.3,0.8,0.5c0.4,0.2,0.9,0.6,1.3,1.3
				c0,0.1,0.1,0,0.1-0.1C141,144.3,140.7,143.5,140.1,142.6z"/>
		</g>
		<g id="XMLID_24_">
			<path id="XMLID_15_" class="st3" d="M181.5,74.8c0.8-3.5,0.8-7.4,2.7-9.9l2.7-11.4c0,0,5.3-12.6-42.9-28.8l13.8,9l-10.2-2.3
				l11.7,8.3l-8.9-1.9l4,4.3c0,0-54.4,41.1-98.8,87.2c0,0,16.1-0.9,41.3-6.3C97,122.9,164.5,147.3,181.5,74.8z"/>
			<path id="XMLID_14_" class="st2" d="M184.2,64.9l2.7-11.4c0,0,1.5-3.5-4.1-9.1c-0.1,1.7-1.2,3.4-2.7,4.2
				c-2.1,1.1-4.6,0.7-6.9,0.7c-2.4,0-5.1,0.6-6,2.8c-1,2.3,0.7,4.9,2.7,6.3c2,1.5,4.4,2.4,6,4.3c2.1,2.5,2.3,6,1.7,9.2
				c-0.6,3.2-1.9,6.2-2.4,9.4c-0.5,3.4-0.2,6.9,1,10.1c2.1-4.9,4-10.4,5.4-16.6C182.3,71.3,182.4,67.4,184.2,64.9z"/>
			<g id="XMLID_35_">
				<path id="XMLID_13_" class="st4" d="M173.3,57.8c-2,0-3.6-1.6-3.6-3.6s1.6-3.6,3.6-3.6s3.6,1.6,3.6,3.6S175.3,57.8,173.3,57.8z"
					/>
				<circle id="XMLID_12_" class="st5" cx="173.3" cy="54.2" r="2.6"/>
				<circle id="XMLID_11_" class="st4" cx="174.6" cy="54.1" r="0.5"/>
			</g>
			<path id="XMLID_10_" class="st6" d="M177.5,59.1l9.4-7.9c0,0,10.5,7,9.4,10.1h-12.1L177.5,59.1z"/>
			<path id="XMLID_9_" class="st7" d="M183.5,66l12.7-4.7c-1-1.1-2.9-1.4-4.4-1.3c-1.5,0.1-3.1,0.3-4.5-0.2
				c-0.8-0.3-1.4-0.8-2.2-1.2c-2.4-1.3-5.5-1-7.7,0.5L183.5,66z"/>
			<path id="XMLID_8_" class="st2" d="M155.3,86.8c0,0-57.5,24.6-84.2,36.9c-26.7,12.2,43.5-35.8,43.5-35.8L155.3,86.8z"/>
			<path id="XMLID_7_" class="st8" d="M83.3,102.2c0,0-53.5,48-75.8,68.8c0,0,1.9,1,11.2-3.3L108,90.3L83.3,102.2z"/>
			<path id="XMLID_6_" class="st9" d="M21.5,158.2c0,0,68.4-49,88.4-58.5l-4.8-9.3l-21.7,11.9L21.5,158.2z"/>
			<path id="XMLID_5_" class="st8" d="M78.6,102.3c0,0-4.1,3.9-9.7,10c-1.3,1.4,0.1,3.6,1.9,3.1c17.7-4.7,70.1-19.3,87.8-31.3l-2-10
				L82.9,100L78.6,102.3z"/>
			<path id="XMLID_4_" class="st10" d="M91.9,86.4c0,0-11.1,10.9-16.5,17.4c-0.9,1.1,0.2,2.7,1.6,2.2l73.6-26.3l-22.2-5.1L91.9,86.4
				z"/>
			<path id="XMLID_3_" class="st11" d="M113.1,71.3c0,0-15.9,9.6-30.3,23.1c-1.2,1.1,0.1,3,1.5,2.4l54-22L113.1,71.3z"/>
			<path id="XMLID_2_" class="st2" d="M162.5,77.8c0,0-3.8-12.5-23.6-23.7l-2.4,2v5.7L162.5,77.8z"/>
			<path id="XMLID_1_" class="st12" d="M136.6,56.1c0,0-16.8,10.9-28.6,18.4c-1.6,1-0.6,3.5,1.3,3.1l9.4-2.1
				c0.3-0.1,0.5,0.4,0.2,0.5l-1.4,0.7c-1.4,0.7-0.8,2.9,0.8,2.7l10.4-1.3c0.5-0.1,0.8,0.7,0.3,0.9l-2.9,1.5
				c-1.4,0.7-0.7,2.8,0.8,2.5l11.6-2c0.6-0.1,0.9,0.8,0.4,1.1l-4.9,2.6c-0.7,0.4-0.3,1.4,0.4,1.3l12.5-1.8l-4,3.4
				c-1,0.8-0.3,2.4,1,2.3l9.8-0.9c2.9-0.3,5.6-1.6,7.3-3.9C164.8,80.4,165.3,70.8,136.6,56.1z"/>
		</g>
	</g>
</g>
<g id="Layer_2">
	<g id="XMLID_50_">
		<polygon id="XMLID_48_" class="st13" points="25.4,126 21.1,129.7 27.3,128.6 86.8,85.2 64.7,89 25,123.5 		"/>
		<g id="XMLID_71_">
			<path id="XMLID_47_" class="st13" d="M129.7,87.8l0.5,6.2c0,0.3,0.3,0.6,0.6,0.6h1.9c0.5,0,0.8-0.4,0.8-0.9l-0.4-6.9L129.7,87.8z
				"/>
			<path id="XMLID_46_" class="st13" d="M130.3,94.3l9.1,17c0,0,2.5,0.7,3.2-1.5l-9-16l-2.1-1.9L130.3,94.3z"/>
			<path id="XMLID_44_" class="st13" d="M153.2,111.6c-0.4-0.4-0.9-0.7-1.5-0.8c-2.2-0.4-8.5-1.6-10.3-2.9c-2.1-1.5-3.5,0.8-3.5,0.8
				s-1.7,3.3-5,5.7c-1.8,1.3-3,3.3-3.1,5.5c0,0.1,0,0.2,0,0.2c0,0.2,0.3,0.2,0.3,0c0.5-1.8,1.8-2.6,2.6-2.9c0.4-0.2,0.8-0.5,1.1-0.8
				c1.4-1.2,4.8-4,7-4.2c2.8-0.2,6.6,2.8,6.6,2.8s0.7,0.5,1.3,1.3c0.1,0.2,0.4,0,0.3-0.1c-0.1-0.4-0.3-0.8-0.5-1.3
				c-0.3-0.4-0.6-0.8-1-1.1l-3.2-2.4c0,0,4.9-0.4,7.9,0.9c0.3,0.1,0.6,0.2,0.9,0.3c0.4,0.1,1,0.4,1.6,1c0.1,0.1,0.2,0,0.1-0.1
				C154.4,113,154,112.4,153.2,111.6z"/>
		</g>
		<g id="XMLID_67_">
			<path id="XMLID_43_" class="st13" d="M114.9,81.9l-0.5,6.1c0,0.3,0.2,0.6,0.5,0.7l1.7,0.3c0.4,0.1,0.8-0.3,0.9-0.7l0.6-6.8
				L114.9,81.9z"/>
			<path id="XMLID_42_" class="st13" d="M114.5,88.3l5.7,18c0,0,2.1,1.1,3.1-1l-5.7-17.1L116,86L114.5,88.3z"/>
			<path id="XMLID_40_" class="st13" d="M132.6,108.8c-0.3-0.5-0.7-0.8-1.2-1c-1.9-0.7-7.4-2.9-8.8-4.5c-1.7-1.9-3.3,0.2-3.3,0.2
				s-2,3-5.3,4.8c-1.8,1-3.2,2.7-3.6,4.8c0,0.1,0,0.2,0,0.2c0,0.2,0.2,0.3,0.3,0.1c0.7-1.6,2-2.2,2.7-2.4c0.4-0.1,0.8-0.3,1.1-0.6
				c1.4-1,4.9-3.2,6.9-3c2.5,0.3,5.5,3.8,5.5,3.8s0.6,0.6,1,1.4c0.1,0.2,0.3,0.1,0.3-0.1c0-0.4-0.1-0.8-0.3-1.3s-0.4-0.9-0.8-1.3
				l-2.5-2.9c0,0,4.5,0.4,6.9,2.1c0.2,0.2,0.5,0.3,0.7,0.4c0.4,0.2,0.9,0.6,1.3,1.2c0,0.1,0.1,0,0.1-0.1
				C133.4,110.4,133.1,109.7,132.6,108.8z"/>
		</g>
		<path id="XMLID_39_" class="st14" d="M176.7,24.2l0.3-1.8c0,0-8.2-19.9-28.3-12.4c-4.3,1.6-8.1,4.1-11.4,7.3l-9,8.8l0.9,1
			c-18.7,15.1-49.4,41-76.3,69c0,0,15.2-0.8,39.1-6c0,0,63.8,23.1,79.9-45.5c0.8-3.3,0.8-7,2.5-9.4l2-8.3l0,0l0,0l0.6-2.5
			L176.7,24.2z"/>
		<path id="XMLID_38_" class="st15" d="M147.2,52.7c0,0,22.3,1.6-74.8,31.9l30.9-19.8l34-14.4L147.2,52.7z"/>
		<path id="XMLID_37_" class="st15" d="M174.3,35.3l2-8.3l0,0l0.6-2.5l-0.2-0.2l0.3-1.8c0,0-8.2-19.9-28.3-12.4
			c-4.3,1.6-8.1,4.1-11.4,7.3l-5,4.8c2.2,2.9,5.7,4.9,9.2,6.1c4.4,1.5,9.1,2.2,13.5,3.7s8.7,4.3,10.6,8.5c1,2.2,1.2,4.6,1.8,6.9
			c0.4,1.8,1.1,3.6,2.3,5c0.8-2.4,1.5-5,2.1-7.8C172.5,41.3,172.6,37.6,174.3,35.3z"/>
		<path id="XMLID_36_" class="st15" d="M29.6,116.2c0,0-1.3-0.3-22.4,19.4c0,0,1.8,1,10.6-3.2l84.5-73.2L29.6,116.2z"/>
		<path id="XMLID_34_" class="st16" d="M20.7,123.3c0,0,64.3-46.1,83.2-55.1l-4.5-8.8L78.8,70.6L20.7,123.3z"/>
		<path id="XMLID_33_" class="st13" d="M73.3,69.9c0,0-3.9,3.7-9.2,9.5c-1.2,1.3,0.1,3.4,1.8,2.9c16.8-4.5,66.3-18.2,83.1-29.6
			l-1.9-9.5L77.4,67.7L73.3,69.9z"/>
		<path id="XMLID_32_" class="st17" d="M85.9,54.8c0,0-10.5,10.3-15.6,16.5c-0.9,1,0.2,2.6,1.5,2.1l69.6-24.9l-21-4.8L85.9,54.8z"/>
		<path id="XMLID_31_" class="st16" d="M105.9,40.5c0,0-15,9-28.7,21.9c-1.1,1,0,2.9,1.5,2.3l51-20.8L105.9,40.5z"/>
		<path id="XMLID_30_" class="st16" d="M175.5,30.4l-4.2-1.7c0,0-8.1,3-13.7-2.2c-5.5-5.2-16.1,1.9-16.1,1.9s19.3,11.4,16.8,20.1
			c-2.5,8.5,8.2,10.9,8.2,10.9l0.7-0.1c1.8-4.3,3.4-9.2,4.6-14.6c0.8-3.3,0.8-7,2.5-9.4L175.5,30.4L175.5,30.4z"/>
		<path id="XMLID_29_" class="st18" d="M128.2,26.2c0,0-15.9,10.3-27,17.4c-1.5,1-0.5,3.3,1.2,2.9l8.9-2c0.3-0.1,0.5,0.4,0.2,0.5
			l-1.3,0.7c-1.4,0.7-0.7,2.7,0.8,2.5l9.9-1.2c0.5-0.1,0.7,0.6,0.3,0.9l-2.8,1.4c-1.3,0.7-0.7,2.7,0.8,2.4l11-1.9
			c0.6-0.1,0.9,0.7,0.3,1l-4.7,2.5c-0.6,0.3-0.3,1.3,0.4,1.2l11.8-1.7l-3.7,3.2c-0.9,0.8-0.3,2.3,0.9,2.2l9.3-0.8
			c2.7-0.2,5.3-1.5,6.9-3.7C154.8,49.1,155.3,40,128.2,26.2z"/>
		<path id="XMLID_28_" class="st13" d="M193.5,30.5c0,0-10.2,3.8-19.2,4.7c0,0-2.2-5.1-3.1-6.5l7.9-1.8L193.5,30.5z"/>
		<path id="XMLID_27_" class="st17" d="M177,22.4c0,0,9.4,4.2,17,8.1c0,0-10.5-0.2-22.8-1.8C171.2,28.7,175.3,24.8,177,22.4z"/>
		<g id="XMLID_51_">
			<path id="XMLID_26_" class="st4" d="M165.2,27.2c-1.9,0-3.4-1.5-3.4-3.4s1.5-3.4,3.4-3.4s3.4,1.5,3.4,3.4
				C168.7,25.7,167.1,27.2,165.2,27.2z"/>
			<circle id="XMLID_25_" class="st5" cx="165.2" cy="23.8" r="2.5"/>
			<circle id="XMLID_22_" class="st4" cx="166.4" cy="23.7" r="0.5"/>
		</g>
	</g>
</g>
</svg>
