<?xml version="1.0" encoding="utf-8"?>
<!-- Generator: Adobe Illustrator 19.0.0, SVG Export Plug-In . SVG Version: 6.00 Build 0)  -->
<svg version="1.1" id="Layer_1" xmlns="http://www.w3.org/2000/svg" xmlns:xlink="http://www.w3.org/1999/xlink" x="0px" y="0px"
	 width="200px" height="200px" viewBox="0 0 200 200" style="enable-background:new 0 0 200 200;" xml:space="preserve">
<style type="text/css">
	.st0{display:none;}
	.st1{display:inline;}
	.st2{fill:#222525;}
	.st3{fill:#E43533;}
	.st4{fill:#FFFFFF;}
	.st5{fill:#241F20;}
	.st6{fill:#F9A11F;}
	.st7{fill:#E27E26;}
	.st8{fill:#981C1F;}
	.st9{fill:#C72527;}
	.st10{fill:#AC2224;}
	.st11{fill:#BB2526;}
	.st12{fill:#CE2929;}
	.st13{fill:#555759;}
	.st14{fill:#CCC25A;}
	.st15{fill:#427183;}
	.st16{fill:#D9DDDB;}
	.st17{fill:#787B7C;}
	.st18{fill:#A59453;}
	.st19{fill:#E0D7E1;}
	.st20{fill:#485E9C;}
	.st21{fill:#324872;}
	.st22{fill:#5873B1;}
	.st23{fill:#9894A4;}
	.st24{fill:#2C2E2D;}
	.st25{fill:#7E5F56;}
	.st26{fill:#4D3A2C;}
	.st27{fill:#CDB791;}
	.st28{fill:#977768;}
	.st29{fill:#614944;}
	.st30{fill:#71554D;}
	.st31{fill:#5B4637;}
</style>
<g id="Layer_1_1_" class="st0">
	<g id="XMLID_23_" class="st1">
		<g id="XMLID_45_">
			<path id="XMLID_21_" class="st2" d="M137,120.5l0.5,6.6c0,0.4,0.3,0.6,0.7,0.6h2.1c0.5,0,0.9-0.4,0.9-0.9l-0.5-7.3L137,120.5z"/>
			<path id="XMLID_20_" class="st2" d="M137.7,127.3l9.6,17.9c0,0,2.6,0.8,3.4-1.6l-9.5-16.9l-2.2-2L137.7,127.3z"/>
			<path id="XMLID_19_" class="st2" d="M161.9,145.6c-0.4-0.4-1-0.7-1.6-0.8c-2.4-0.4-9-1.7-10.9-3.1c-2.3-1.6-3.7,0.9-3.7,0.9
				s-1.8,3.5-5.3,6c-1.9,1.4-3.2,3.5-3.3,5.8c0,0.1,0,0.2,0,0.3c0,0.2,0.3,0.2,0.3,0c0.6-1.9,1.9-2.7,2.7-3.1
				c0.4-0.2,0.8-0.5,1.2-0.8c1.5-1.3,5.1-4.3,7.4-4.4c2.9-0.2,7,3,7,3s0.8,0.6,1.4,1.3c0.1,0.2,0.4,0,0.3-0.2
				c-0.1-0.4-0.3-0.9-0.6-1.3c-0.3-0.5-0.6-0.9-1.1-1.2l-3.4-2.6c0,0,5.2-0.4,8.3,0.9c0.3,0.1,0.6,0.2,0.9,0.3
				c0.4,0.1,1.1,0.4,1.7,1.1c0.1,0.1,0.2,0,0.1-0.1C163.2,147.1,162.7,146.4,161.9,145.6z"/>
		</g>
		<g id="XMLID_41_">
			<path id="XMLID_18_" class="st2" d="M121.4,114.2l-0.5,6.5c0,0.3,0.2,0.7,0.5,0.7l1.8,0.3c0.4,0.1,0.9-0.3,0.9-0.8l0.7-7.2
				L121.4,114.2z"/>
			<path id="XMLID_17_" class="st2" d="M121,121l6,19c0,0,2.2,1.2,3.3-1l-6.1-18l-1.7-2.3L121,121z"/>
			<path id="XMLID_16_" class="st2" d="M140.1,142.6c-0.3-0.5-0.8-0.9-1.3-1.1c-2.1-0.8-7.8-3.1-9.3-4.7c-1.8-2-3.5,0.3-3.5,0.3
				s-2.1,3.2-5.6,5c-1.9,1-3.3,2.9-3.8,5.1c0,0.1,0,0.2,0,0.3c0,0.2,0.2,0.3,0.3,0.1c0.8-1.7,2.1-2.3,2.9-2.6
				c0.4-0.1,0.8-0.3,1.2-0.6c1.5-1,5.2-3.4,7.2-3.1c2.7,0.3,5.8,4,5.8,4s0.6,0.7,1,1.5c0.1,0.2,0.3,0.1,0.3-0.1
				c0-0.4-0.1-0.9-0.3-1.4s-0.5-1-0.8-1.4l-2.7-3c0,0,4.7,0.4,7.3,2.2c0.3,0.2,0.5,0.3,0.8,0.5c0.4,0.2,0.9,0.6,1.3,1.3
				c0,0.1,0.1,0,0.1-0.1C141,144.3,140.7,143.5,140.1,142.6z"/>
		</g>
		<g id="XMLID_24_">
			<path id="XMLID_15_" class="st3" d="M181.5,74.8c0.8-3.5,0.8-7.4,2.7-9.9l2.7-11.4c0,0,5.3-12.6-42.9-28.8l13.8,9l-10.2-2.3
				l11.7,8.3l-8.9-1.9l4,4.3c0,0-54.4,41.1-98.8,87.2c0,0,16.1-0.9,41.3-6.3C97,122.9,164.5,147.3,181.5,74.8z"/>
			<path id="XMLID_14_" class="st2" d="M184.2,64.9l2.7-11.4c0,0,1.5-3.5-4.1-9.1c-0.1,1.7-1.2,3.4-2.7,4.2
				c-2.1,1.1-4.6,0.7-6.9,0.7c-2.4,0-5.1,0.6-6,2.8c-1,2.3,0.7,4.9,2.7,6.3c2,1.5,4.4,2.4,6,4.3c2.1,2.5,2.3,6,1.7,9.2
				c-0.6,3.2-1.9,6.2-2.4,9.4c-0.5,3.4-0.2,6.9,1,10.1c2.1-4.9,4-10.4,5.4-16.6C182.3,71.3,182.4,67.4,184.2,64.9z"/>
			<g id="XMLID_35_">
				<path id="XMLID_13_" class="st4" d="M173.3,57.8c-2,0-3.6-1.6-3.6-3.6s1.6-3.6,3.6-3.6s3.6,1.6,3.6,3.6S175.3,57.8,173.3,57.8z"
					/>
				<circle id="XMLID_12_" class="st5" cx="173.3" cy="54.2" r="2.6"/>
				<circle id="XMLID_11_" class="st4" cx="174.6" cy="54.1" r="0.5"/>
			</g>
			<path id="XMLID_10_" class="st6" d="M177.5,59.1l9.4-7.9c0,0,10.5,7,9.4,10.1h-12.1L177.5,59.1z"/>
			<path id="XMLID_9_" class="st7" d="M183.5,66l12.7-4.7c-1-1.1-2.9-1.4-4.4-1.3c-1.5,0.1-3.1,0.3-4.5-0.2
				c-0.8-0.3-1.4-0.8-2.2-1.2c-2.4-1.3-5.5-1-7.7,0.5L183.5,66z"/>
			<path id="XMLID_8_" class="st2" d="M155.3,86.8c0,0-57.5,24.6-84.2,36.9c-26.7,12.2,43.5-35.8,43.5-35.8L155.3,86.8z"/>
			<path id="XMLID_7_" class="st8" d="M83.3,102.2c0,0-53.5,48-75.8,68.8c0,0,1.9,1,11.2-3.3L108,90.3L83.3,102.2z"/>
			<path id="XMLID_6_" class="st9" d="M21.5,158.2c0,0,68.4-49,88.4-58.5l-4.8-9.3l-21.7,11.9L21.5,158.2z"/>
			<path id="XMLID_5_" class="st8" d="M78.6,102.3c0,0-4.1,3.9-9.7,10c-1.3,1.4,0.1,3.6,1.9,3.1c17.7-4.7,70.1-19.3,87.8-31.3l-2-10
				L82.9,100L78.6,102.3z"/>
			<path id="XMLID_4_" class="st10" d="M91.9,86.4c0,0-11.1,10.9-16.5,17.4c-0.9,1.1,0.2,2.7,1.6,2.2l73.6-26.3l-22.2-5.1L91.9,86.4
				z"/>
			<path id="XMLID_3_" class="st11" d="M113.1,71.3c0,0-15.9,9.6-30.3,23.1c-1.2,1.1,0.1,3,1.5,2.4l54-22L113.1,71.3z"/>
			<path id="XMLID_2_" class="st2" d="M162.5,77.8c0,0-3.8-12.5-23.6-23.7l-2.4,2v5.7L162.5,77.8z"/>
			<path id="XMLID_1_" class="st12" d="M136.6,56.1c0,0-16.8,10.9-28.6,18.4c-1.6,1-0.6,3.5,1.3,3.1l9.4-2.1
				c0.3-0.1,0.5,0.4,0.2,0.5l-1.4,0.7c-1.4,0.7-0.8,2.9,0.8,2.7l10.4-1.3c0.5-0.1,0.8,0.7,0.3,0.9l-2.9,1.5
				c-1.4,0.7-0.7,2.8,0.8,2.5l11.6-2c0.6-0.1,0.9,0.8,0.4,1.1l-4.9,2.6c-0.7,0.4-0.3,1.4,0.4,1.3l12.5-1.8l-4,3.4
				c-1,0.8-0.3,2.4,1,2.3l9.8-0.9c2.9-0.3,5.6-1.6,7.3-3.9C164.8,80.4,165.3,70.8,136.6,56.1z"/>
		</g>
	</g>
</g>
<g id="Layer_2" class="st0">
	<g id="XMLID_50_" class="st1">
		<polygon id="XMLID_48_" class="st13" points="25.4,156 21.1,159.7 27.3,158.6 86.8,115.2 64.7,119 25,153.5 		"/>
		<g id="XMLID_71_">
			<path id="XMLID_47_" class="st13" d="M129.7,117.8l0.5,6.2c0,0.3,0.3,0.6,0.6,0.6h1.9c0.5,0,0.8-0.4,0.8-0.9l-0.4-6.9
				L129.7,117.8z"/>
			<path id="XMLID_46_" class="st13" d="M130.3,124.3l9.1,17c0,0,2.5,0.7,3.2-1.5l-9-16l-2.1-1.9L130.3,124.3z"/>
			<path id="XMLID_44_" class="st13" d="M153.2,141.6c-0.4-0.4-0.9-0.7-1.5-0.8c-2.2-0.4-8.5-1.6-10.3-2.9c-2.1-1.5-3.5,0.8-3.5,0.8
				s-1.7,3.3-5,5.7c-1.8,1.3-3,3.3-3.1,5.5c0,0.1,0,0.2,0,0.2c0,0.2,0.3,0.2,0.3,0c0.5-1.8,1.8-2.6,2.6-2.9c0.4-0.2,0.8-0.5,1.1-0.8
				c1.4-1.2,4.8-4,7-4.2c2.8-0.2,6.6,2.8,6.6,2.8s0.7,0.5,1.3,1.3c0.1,0.2,0.4,0,0.3-0.1c-0.1-0.4-0.3-0.8-0.5-1.3
				c-0.3-0.4-0.6-0.8-1-1.1l-3.2-2.4c0,0,4.9-0.4,7.9,0.9c0.3,0.1,0.6,0.2,0.9,0.3c0.4,0.1,1,0.4,1.6,1c0.1,0.1,0.2,0,0.1-0.1
				C154.4,143,154,142.4,153.2,141.6z"/>
		</g>
		<g id="XMLID_67_">
			<path id="XMLID_43_" class="st13" d="M114.9,111.9l-0.5,6.1c0,0.3,0.2,0.6,0.5,0.7l1.7,0.3c0.4,0.1,0.8-0.3,0.9-0.7l0.6-6.8
				L114.9,111.9z"/>
			<path id="XMLID_42_" class="st13" d="M114.5,118.3l5.7,18c0,0,2.1,1.1,3.1-1l-5.7-17.1L116,116L114.5,118.3z"/>
			<path id="XMLID_40_" class="st13" d="M132.6,138.8c-0.3-0.5-0.7-0.8-1.2-1c-1.9-0.7-7.4-2.9-8.8-4.5c-1.7-1.9-3.3,0.2-3.3,0.2
				s-2,3-5.3,4.8c-1.8,1-3.2,2.7-3.6,4.8c0,0.1,0,0.2,0,0.2c0,0.2,0.2,0.3,0.3,0.1c0.7-1.6,2-2.2,2.7-2.4c0.4-0.1,0.8-0.3,1.1-0.6
				c1.4-1,4.9-3.2,6.9-3c2.5,0.3,5.5,3.8,5.5,3.8s0.6,0.6,1,1.4c0.1,0.2,0.3,0.1,0.3-0.1c0-0.4-0.1-0.8-0.3-1.3s-0.4-0.9-0.8-1.3
				l-2.5-2.9c0,0,4.5,0.4,6.9,2.1c0.2,0.2,0.5,0.3,0.7,0.4c0.4,0.2,0.9,0.6,1.3,1.2c0,0.1,0.1,0,0.1-0.1
				C133.4,140.4,133.1,139.7,132.6,138.8z"/>
		</g>
		<path id="XMLID_39_" class="st14" d="M176.7,54.2l0.3-1.8c0,0-8.2-19.9-28.3-12.4c-4.3,1.6-8.1,4.1-11.4,7.3l-9,8.8l0.9,1
			c-18.7,15.1-49.4,41-76.3,69c0,0,15.2-0.8,39.1-6c0,0,63.8,23.1,79.9-45.5c0.8-3.3,0.8-7,2.5-9.4l2-8.3l0,0l0,0l0.6-2.5
			L176.7,54.2z"/>
		<path id="XMLID_38_" class="st15" d="M147.2,82.7c0,0,22.3,1.6-74.8,31.9l30.9-19.8l34-14.4L147.2,82.7z"/>
		<path id="XMLID_37_" class="st15" d="M174.3,65.3l2-8.3l0,0l0.6-2.5l-0.2-0.2l0.3-1.8c0,0-8.2-19.9-28.3-12.4
			c-4.3,1.6-8.1,4.1-11.4,7.3l-5,4.8c2.2,2.9,5.7,4.9,9.2,6.1c4.4,1.5,9.1,2.2,13.5,3.7s8.7,4.3,10.6,8.5c1,2.2,1.2,4.6,1.8,6.9
			c0.4,1.8,1.1,3.6,2.3,5c0.8-2.4,1.5-5,2.1-7.8C172.5,71.3,172.6,67.6,174.3,65.3z"/>
		<path id="XMLID_36_" class="st15" d="M29.6,146.2c0,0-1.3-0.3-22.4,19.4c0,0,1.8,1,10.6-3.2l84.5-73.2L29.6,146.2z"/>
		<path id="XMLID_34_" class="st16" d="M20.7,153.3c0,0,64.3-46.1,83.2-55.1l-4.5-8.8l-20.6,11.2L20.7,153.3z"/>
		<path id="XMLID_33_" class="st13" d="M73.3,99.9c0,0-3.9,3.7-9.2,9.5c-1.2,1.3,0.1,3.4,1.8,2.9c16.8-4.5,66.3-18.2,83.1-29.6
			l-1.9-9.5L77.4,97.7L73.3,99.9z"/>
		<path id="XMLID_32_" class="st17" d="M85.9,84.8c0,0-10.5,10.3-15.6,16.5c-0.9,1,0.2,2.6,1.5,2.1l69.6-24.9l-21-4.8L85.9,84.8z"/>
		<path id="XMLID_31_" class="st16" d="M105.9,70.5c0,0-15,9-28.7,21.9c-1.1,1,0,2.9,1.5,2.3l51-20.8L105.9,70.5z"/>
		<path id="XMLID_30_" class="st16" d="M175.5,60.4l-4.2-1.7c0,0-8.1,3-13.7-2.2c-5.5-5.2-16.1,1.9-16.1,1.9s19.3,11.4,16.8,20.1
			c-2.5,8.5,8.2,10.9,8.2,10.9l0.7-0.1c1.8-4.3,3.4-9.2,4.6-14.6c0.8-3.3,0.8-7,2.5-9.4L175.5,60.4L175.5,60.4z"/>
		<path id="XMLID_29_" class="st18" d="M128.2,56.2c0,0-15.9,10.3-27,17.4c-1.5,1-0.5,3.3,1.2,2.9l8.9-2c0.3-0.1,0.5,0.4,0.2,0.5
			l-1.3,0.7c-1.4,0.7-0.7,2.7,0.8,2.5l9.9-1.2c0.5-0.1,0.7,0.6,0.3,0.9l-2.8,1.4c-1.3,0.7-0.7,2.7,0.8,2.4l11-1.9
			c0.6-0.1,0.9,0.7,0.3,1l-4.7,2.5c-0.6,0.3-0.3,1.3,0.4,1.2l11.8-1.7l-3.7,3.2c-0.9,0.8-0.3,2.3,0.9,2.2l9.3-0.8
			c2.7-0.2,5.3-1.5,6.9-3.7C154.8,79.1,155.3,70,128.2,56.2z"/>
		<path id="XMLID_28_" class="st13" d="M193.5,60.5c0,0-10.2,3.8-19.2,4.7c0,0-2.2-5.1-3.1-6.5l7.9-1.8L193.5,60.5z"/>
		<path id="XMLID_27_" class="st17" d="M177,52.4c0,0,9.4,4.2,17,8.1c0,0-10.5-0.2-22.8-1.8C171.2,58.7,175.3,54.8,177,52.4z"/>
		<g id="XMLID_51_">
			<path id="XMLID_26_" class="st4" d="M165.2,57.2c-1.9,0-3.4-1.5-3.4-3.4s1.5-3.4,3.4-3.4s3.4,1.5,3.4,3.4
				C168.7,55.7,167.1,57.2,165.2,57.2z"/>
			<circle id="XMLID_25_" class="st5" cx="165.2" cy="53.8" r="2.5"/>
			<circle id="XMLID_22_" class="st4" cx="166.4" cy="53.7" r="0.5"/>
		</g>
	</g>
</g>
<g id="Layer_3" class="st0">
	<g id="XMLID_75_" class="st1">
		<polygon id="XMLID_73_" class="st2" points="29.1,152.7 25.1,156.2 31,155.1 78,117.1 67,117.1 28.8,150.3 		"/>
		<g id="XMLID_95_">
			<path id="XMLID_72_" class="st2" d="M129.5,116l0.5,6c0,0.3,0.3,0.6,0.6,0.6h1.9c0.4,0,0.8-0.4,0.8-0.8l-0.4-6.6L129.5,116z"/>
			<path id="XMLID_70_" class="st2" d="M130.1,122.2l8.7,16.3c0,0,2.4,0.7,3.1-1.5l-8.7-15.4l-2-1.8L130.1,122.2z"/>
			<path id="XMLID_69_" class="st2" d="M152.2,138.8c-0.4-0.4-0.9-0.7-1.4-0.8c-2.1-0.4-8.2-1.6-9.9-2.8c-2.1-1.5-3.4,0.8-3.4,0.8
				s-1.6,3.2-4.8,5.5c-1.7,1.2-2.9,3.1-3,5.3c0,0.1,0,0.2,0,0.2c0,0.2,0.2,0.2,0.3,0c0.5-1.7,1.8-2.5,2.5-2.8
				c0.4-0.2,0.8-0.4,1.1-0.7c1.3-1.2,4.6-3.9,6.7-4c2.7-0.2,6.3,2.7,6.3,2.7s0.7,0.5,1.2,1.2c0.1,0.1,0.3,0,0.3-0.1
				c-0.1-0.4-0.3-0.8-0.5-1.2s-0.6-0.8-1-1.1l-3.1-2.3c0,0,4.7-0.4,7.6,0.8c0.3,0.1,0.6,0.2,0.8,0.3c0.4,0.1,1,0.4,1.5,1
				c0.1,0.1,0.1,0,0.1-0.1C153.3,140.2,152.9,139.6,152.2,138.8z"/>
		</g>
		<g id="XMLID_91_">
			<path id="XMLID_68_" class="st2" d="M115.3,110.2l-0.5,5.9c0,0.3,0.2,0.6,0.5,0.6l1.7,0.3c0.4,0.1,0.8-0.2,0.8-0.7l0.6-6.5
				L115.3,110.2z"/>
			<path id="XMLID_66_" class="st2" d="M114.9,116.4l5.4,17.3c0,0,2,1.1,3-0.9l-5.5-16.4l-1.6-2.1L114.9,116.4z"/>
			<path id="XMLID_65_" class="st2" d="M132.3,136.1c-0.3-0.4-0.7-0.8-1.2-1c-1.9-0.7-7.1-2.8-8.5-4.3c-1.6-1.8-3.2,0.2-3.2,0.2
				s-1.9,2.9-5.1,4.6c-1.7,0.9-3,2.6-3.5,4.7c0,0.1,0,0.2,0,0.2c0,0.2,0.2,0.2,0.3,0.1c0.7-1.6,2-2.1,2.6-2.3
				c0.4-0.1,0.7-0.3,1.1-0.5c1.4-0.9,4.7-3.1,6.6-2.9c2.4,0.2,5.3,3.6,5.3,3.6s0.6,0.6,0.9,1.4c0.1,0.2,0.3,0.1,0.3-0.1
				c0-0.4-0.1-0.8-0.3-1.3c-0.2-0.5-0.4-0.9-0.7-1.2l-2.4-2.8c0,0,4.3,0.4,6.7,2c0.2,0.2,0.5,0.3,0.7,0.4c0.3,0.2,0.8,0.5,1.2,1.2
				c0,0.1,0.1,0,0.1-0.1C133.1,137.7,132.8,137,132.3,136.1z"/>
		</g>
		<path id="XMLID_64_" class="st19" d="M174.7,54.8L175,53c0,0-7.8-19.1-27.3-11.9c-4.1,1.5-7.8,4-11,7l-8.7,8.4l0.8,1
			C111,72.1,81.4,97.1,55.5,123.9c0,0,14.6-0.8,37.6-5.7c0,0,61.4,22.2,76.9-43.8c0.8-3.2,0.8-6.8,2.4-9l1.9-8l0,0l0,0l0.6-2.4
			L174.7,54.8z"/>
		<path id="XMLID_63_" class="st2" d="M146.4,82.1c0,0,21.5,1.6-71.9,30.7l29.7-19l32.7-13.9L146.4,82.1z"/>
		<path id="XMLID_62_" class="st20" d="M172.4,65.4l1.9-8l0,0l0.6-2.4l-0.2-0.2L175,53c0,0-7.8-19.1-27.3-11.9c-4.1,1.5-7.8,4-11,7
			l-4.8,4.6c2.1,2.8,5.5,4.7,8.9,5.9c4.2,1.5,8.7,2.1,13,3.6c4.2,1.5,8.4,4.1,10.2,8.2c0.9,2.1,1.2,4.4,1.7,6.6
			c0.4,1.7,1.1,3.5,2.2,4.8c0.8-2.4,1.4-4.8,2.1-7.5C170.8,71.2,170.8,67.6,172.4,65.4z"/>
		<g id="XMLID_84_">
			<path id="XMLID_61_" class="st4" d="M163.1,58.9c-1.8,0-3.3-1.5-3.3-3.3s1.5-3.3,3.3-3.3s3.3,1.5,3.3,3.3S165,58.9,163.1,58.9z"
				/>
			<circle id="XMLID_60_" class="st5" cx="163.1" cy="55.6" r="2.4"/>
			<circle id="XMLID_59_" class="st4" cx="164.3" cy="55.6" r="0.5"/>
		</g>
		<path id="XMLID_58_" class="st21" d="M80.6,99.3c0,0-48.7,43.7-69,62.7c0,0,1.7,0.9,10.2-3l81.3-70.4L80.6,99.3z"/>
		<path id="XMLID_57_" class="st20" d="M24.3,150.3c0,0,62.3-44.6,80.5-53.3l-4.4-8.5L80.6,99.3L24.3,150.3z"/>
		<path id="XMLID_56_" class="st22" d="M75.2,98.7c0,0-3.8,3.5-8.8,9.1c-1.1,1.3,0.1,3.2,1.7,2.8c16.1-4.3,63.8-17.6,79.9-28.5
			l-1.8-9.1l-67,23.6L75.2,98.7z"/>
		<path id="XMLID_55_" class="st20" d="M87.4,84.2c0,0-10.1,9.9-15,15.8c-0.8,1,0.2,2.5,1.4,2l67-23.9l-20.2-4.6L87.4,84.2z"/>
		<path id="XMLID_54_" class="st21" d="M106.6,70.4c0,0-14.5,8.7-27.6,21c-1.1,1,0,2.7,1.4,2.2l49.1-20L106.6,70.4z"/>
		<path id="XMLID_53_" class="st2" d="M198.3,62.1c0,0-14.8,3.1-26.4,4.2c0,0-1.3-4.6-2.4-6.2l10.3-2.1L198.3,62.1z"/>
		<path id="XMLID_52_" class="st23" d="M128.1,56.6c0,0-15.3,9.9-26,16.7c-1.5,0.9-0.5,3.2,1.2,2.8l8.6-1.9c0.3-0.1,0.4,0.4,0.2,0.5
			l-1.3,0.6c-1.3,0.6-0.7,2.6,0.7,2.4l9.5-1.2c0.5-0.1,0.7,0.6,0.3,0.8l-2.6,1.3c-1.3,0.6-0.6,2.6,0.8,2.3l10.6-1.8
			c0.6-0.1,0.8,0.7,0.3,1l-4.5,2.4c-0.6,0.3-0.3,1.3,0.4,1.2l11.4-1.6l-3.6,3.1c-0.9,0.8-0.3,2.2,0.9,2.1l8.9-0.8
			c2.6-0.2,5.1-1.5,6.7-3.6C153.7,78.7,154.2,70,128.1,56.6z"/>
		<path id="XMLID_49_" class="st24" d="M175,53c0,0,14.1,4.7,24,9.1c0,0-13.6-0.2-29.5-2C169.5,60.1,172.9,55.7,175,53z"/>
	</g>
</g>
<g id="Layer_4">
	<g id="XMLID_76_">
		<g id="XMLID_77_">
			<path id="XMLID_104_" class="st25" d="M177.3,22.8c-3.7-5.2-11.7-17.3-33.9-11.1c-5.6,1.6-11.8,4.7-16.1,8.1l-4.7,3.7
				C156.7,7.8,177.3,22.8,177.3,22.8z"/>
			<g id="XMLID_100_">
				<path id="XMLID_103_" class="st26" d="M130.2,91.8l0.5,6.3c0,0.3,0.3,0.6,0.7,0.6h2c0.5,0,0.9-0.4,0.8-0.9l-0.4-7.1L130.2,91.8z
					"/>
				<path id="XMLID_102_" class="st26" d="M130.8,98.5l9.3,17.3c0,0,2.5,0.8,3.3-1.6l-9.2-16.4l-2.2-2L130.8,98.5z"/>
				<path id="XMLID_101_" class="st26" d="M154.2,116.1c-0.4-0.4-0.9-0.7-1.5-0.8c-2.3-0.4-8.7-1.7-10.5-3c-2.2-1.6-3.6,0.8-3.6,0.8
					s-1.7,3.4-5.1,5.8c-1.8,1.3-3.1,3.3-3.2,5.6c0,0.1,0,0.2,0,0.3c0,0.2,0.3,0.2,0.3,0c0.6-1.8,1.9-2.6,2.6-3
					c0.4-0.2,0.8-0.5,1.2-0.8c1.4-1.2,4.9-4.1,7.1-4.3c2.8-0.2,6.7,2.9,6.7,2.9s0.8,0.5,1.3,1.3c0.1,0.2,0.4,0,0.3-0.1
					c-0.1-0.4-0.3-0.8-0.5-1.3c-0.3-0.5-0.6-0.9-1-1.2l-3.3-2.5c0,0,5-0.4,8,0.9c0.3,0.1,0.6,0.2,0.9,0.3c0.4,0.1,1.1,0.4,1.6,1
					c0.1,0.1,0.2,0,0.1-0.1C155.4,117.6,155,116.9,154.2,116.1z"/>
			</g>
			<g id="XMLID_96_">
				<path id="XMLID_99_" class="st26" d="M115.1,85.8l-0.5,6.3c0,0.3,0.2,0.6,0.5,0.7l1.8,0.3c0.4,0.1,0.8-0.3,0.9-0.7l0.6-6.9
					L115.1,85.8z"/>
				<path id="XMLID_98_" class="st26" d="M114.7,92.4l5.8,18.4c0,0,2.1,1.1,3.2-1l-5.9-17.4l-1.7-2.2L114.7,92.4z"/>
				<path id="XMLID_97_" class="st26" d="M133.1,113.3c-0.3-0.5-0.7-0.8-1.2-1c-2-0.8-7.6-3-9-4.6c-1.7-1.9-3.4,0.3-3.4,0.3
					s-2,3-5.4,4.9c-1.8,1-3.2,2.8-3.7,4.9c0,0.1,0,0.2,0,0.2c0,0.2,0.2,0.3,0.3,0.1c0.8-1.7,2.1-2.3,2.8-2.5
					c0.4-0.1,0.8-0.3,1.2-0.6c1.5-1,5-3.2,7-3c2.6,0.3,5.6,3.8,5.6,3.8s0.6,0.6,1,1.5c0.1,0.2,0.3,0.1,0.3-0.1
					c0-0.4-0.1-0.9-0.3-1.4s-0.4-0.9-0.8-1.3l-2.6-2.9c0,0,4.6,0.4,7.1,2.1c0.2,0.2,0.5,0.3,0.7,0.4c0.4,0.2,0.9,0.6,1.3,1.3
					c0,0.1,0.1,0,0.1-0.1C134,114.9,133.7,114.1,133.1,113.3z"/>
			</g>
			<path id="XMLID_94_" class="st27" d="M178.2,26.9l0.3-1.8c0,0-8.3-20.3-29-12.6c-4.4,1.6-8.3,4.2-11.6,7.5l-9.2,9l0.9,1
				c-19.1,15.4-50.5,41.9-77.9,70.4c0,0,15.5-0.8,39.9-6.1c0,0,65.2,23.6,81.6-46.5c0.8-3.4,1.2-8.9,3-11.3l1.6-6.8l0,0l0,0l0.6-2.6
				L178.2,26.9z"/>
			<path id="XMLID_93_" class="st26" d="M148.1,55.9c0,0,22.8,1.7-76.4,32.6l31.5-20.2l34.7-14.7L148.1,55.9z"/>
			<circle id="XMLID_92_" class="st5" cx="164.9" cy="27.4" r="2.9"/>
			<circle id="XMLID_90_" class="st4" cx="166.3" cy="27.4" r="0.6"/>
			<path id="XMLID_89_" class="st26" d="M78.3,74.2c0,0-51.7,46.4-73.2,66.5c0,0,1.8,1,10.8-3.2l86.3-74.8L78.3,74.2z"/>
			<path id="XMLID_88_" class="st28" d="M18.5,128.3c0,0,66.1-47.3,85.4-56.5l-4.6-9l-21,11.5L18.5,128.3z"/>
			<path id="XMLID_87_" class="st29" d="M72.6,73.5c0,0-4,3.7-9.4,9.7c-1.2,1.3,0.1,3.4,1.8,3c17.1-4.6,67.7-18.6,84.8-30.2l-2-9.7
				L76.7,71.4L72.6,73.5z"/>
			<path id="XMLID_86_" class="st30" d="M85.5,58.1c0,0-10.7,10.5-16,16.8C68.6,76,69.7,77.5,71,77l71.1-25.4l-21.4-4.9L85.5,58.1z"
				/>
			<path id="XMLID_85_" class="st25" d="M105.9,43.5c0,0-15.3,9.2-29.3,22.3c-1.1,1.1,0,2.9,1.5,2.3l52.1-21.3L105.9,43.5z"/>
			<path id="XMLID_83_" class="st28" d="M128.7,28.9c0,0-16.2,10.5-27.6,17.8c-1.5,1-0.6,3.4,1.2,3l9.1-2c0.3-0.1,0.5,0.4,0.2,0.5
				l-1.4,0.7c-1.4,0.7-0.8,2.8,0.8,2.6l10.1-1.3c0.5-0.1,0.8,0.7,0.3,0.9l-2.8,1.4c-1.3,0.7-0.7,2.7,0.8,2.5l11.2-1.9
				c0.6-0.1,0.9,0.7,0.3,1l-4.8,2.5c-0.7,0.3-0.3,1.3,0.4,1.2l12.1-1.7l-3.8,3.3c-0.9,0.8-0.3,2.4,0.9,2.3l9.5-0.8
				c2.8-0.2,5.4-1.6,7.1-3.8C155.9,52.3,156.4,43,128.7,28.9z"/>
			<path id="XMLID_82_" class="st31" d="M176.1,36.5l1.6-6.8l0,0l0.6-2.6l-0.2-0.2l0.3-1.8c0,0-3.9-9.4-12.8-13
				c-0.7,1-1.3,2.1-1.9,3.2l-0.9,0.3c4.8,1.3,8.2,6.3,7.8,11.2c-0.2,2.7-1.5,5.3-1.6,8c0,2.4,1,4.7,1.8,7c0.9,2.4,1.5,5,2,7.5
				c0.1-0.5,0.3-1,0.4-1.5C174,44.4,174.4,38.9,176.1,36.5z"/>
			<path id="XMLID_81_" class="st6" d="M170.7,30.8l7.8-5.7c0,0,13.6,5,12.4,7.2h-15.6L170.7,30.8z"/>
			<path id="XMLID_80_" class="st7" d="M176.1,36.5l14.7-4.2c-1.2-0.8-4.7-1-6.5-0.9c-1.8,0-3.7,0.2-5.3-0.2
				c-0.9-0.2-1.7-0.6-2.6-0.8c-2.8-0.9-3.2-0.6-5.8,0.5L176.1,36.5z"/>
			<path id="XMLID_79_" class="st28" d="M128.7,23.5L128.7,23.5L128.7,23.5z"/>
			<path id="XMLID_78_" class="st28" d="M177.3,22.8c-3.2-5-10.3-16.7-29.6-10.8c-4.9,1.5-10.3,4.6-14,7.8l-4.1,3.6
				C159.3,8.3,177.3,22.8,177.3,22.8z"/>
		</g>
	</g>
</g>
</svg>
