<svg xmlns="http://www.w3.org/2000/svg" width="200" height="200" viewBox="0 0 200 200"><style type="text/css">  
	.st0{display:none;}
	.st1{display:inline;}
	.st2{fill:#222525;}
	.st3{fill:#E43533;}
	.st4{fill:#FFFFFF;}
	.st5{fill:#241F20;}
	.st6{fill:#F9A11F;}
	.st7{fill:#E27E26;}
	.st8{fill:#981C1F;}
	.st9{fill:#C72527;}
	.st10{fill:#AC2224;}
	.st11{fill:#BB2526;}
	.st12{fill:#CE2929;}
	.st13{fill:#555759;}
	.st14{fill:#CCC25A;}
	.st15{fill:#427183;}
	.st16{fill:#D9DDDB;}
	.st17{fill:#787B7C;}
	.st18{fill:#A59453;}
	.st19{fill:#E0D7E1;}
	.st20{fill:#485E9C;}
	.st21{fill:#324872;}
	.st22{fill:#5873B1;}
	.st23{fill:#9894A4;}
	.st24{fill:#2C2E2D;}
</style><g class="st0"><g class="st1"><path class="st2" d="M137 120.5l0.5 6.6c0 0.4 0.3 0.6 0.7 0.6h2.1c0.5 0 0.9-0.4 0.9-0.9l-0.5-7.3L137 120.5z"/><path class="st2" d="M137.7 127.3l9.6 17.9c0 0 2.6 0.8 3.4-1.6l-9.5-16.9 -2.2-2L137.7 127.3z"/><path class="st2" d="M161.9 145.6c-0.4-0.4-1-0.7-1.6-0.8 -2.4-0.4-9-1.7-10.9-3.1 -2.3-1.6-3.7 0.9-3.7 0.9s-1.8 3.5-5.3 6c-1.9 1.4-3.2 3.5-3.3 5.8 0 0.1 0 0.2 0 0.3 0 0.2 0.3 0.2 0.3 0 0.6-1.9 1.9-2.7 2.7-3.1 0.4-0.2 0.8-0.5 1.2-0.8 1.5-1.3 5.1-4.3 7.4-4.4 2.9-0.2 7 3 7 3s0.8 0.6 1.4 1.3c0.1 0.2 0.4 0 0.3-0.2 -0.1-0.4-0.3-0.9-0.6-1.3 -0.3-0.5-0.6-0.9-1.1-1.2l-3.4-2.6c0 0 5.2-0.4 8.3 0.9 0.3 0.1 0.6 0.2 0.9 0.3 0.4 0.1 1.1 0.4 1.7 1.1 0.1 0.1 0.2 0 0.1-0.1C163.2 147.1 162.7 146.4 161.9 145.6z"/><path class="st2" d="M121.4 114.2l-0.5 6.5c0 0.3 0.2 0.7 0.5 0.7l1.8 0.3c0.4 0.1 0.9-0.3 0.9-0.8l0.7-7.2L121.4 114.2z"/><path class="st2" d="M121 121l6 19c0 0 2.2 1.2 3.3-1l-6.1-18 -1.7-2.3L121 121z"/><path class="st2" d="M140.1 142.6c-0.3-0.5-0.8-0.9-1.3-1.1 -2.1-0.8-7.8-3.1-9.3-4.7 -1.8-2-3.5 0.3-3.5 0.3s-2.1 3.2-5.6 5c-1.9 1-3.3 2.9-3.8 5.1 0 0.1 0 0.2 0 0.3 0 0.2 0.2 0.3 0.3 0.1 0.8-1.7 2.1-2.3 2.9-2.6 0.4-0.1 0.8-0.3 1.2-0.6 1.5-1 5.2-3.4 7.2-3.1 2.7 0.3 5.8 4 5.8 4s0.6 0.7 1 1.5c0.1 0.2 0.3 0.1 0.3-0.1 0-0.4-0.1-0.9-0.3-1.4s-0.5-1-0.8-1.4l-2.7-3c0 0 4.7 0.4 7.3 2.2 0.3 0.2 0.5 0.3 0.8 0.5 0.4 0.2 0.9 0.6 1.3 1.3 0 0.1 0.1 0 0.1-0.1C141 144.3 140.7 143.5 140.1 142.6z"/><path class="st3" d="M181.5 74.8c0.8-3.5 0.8-7.4 2.7-9.9l2.7-11.4c0 0 5.3-12.6-42.9-28.8l13.8 9 -10.2-2.3 11.7 8.3 -8.9-1.9 4 4.3c0 0-54.4 41.1-98.8 87.2 0 0 16.1-0.9 41.3-6.3C97 122.9 164.5 147.3 181.5 74.8z"/><path class="st2" d="M184.2 64.9l2.7-11.4c0 0 1.5-3.5-4.1-9.1 -0.1 1.7-1.2 3.4-2.7 4.2 -2.1 1.1-4.6 0.7-6.9 0.7 -2.4 0-5.1 0.6-6 2.8 -1 2.3 0.7 4.9 2.7 6.3 2 1.5 4.4 2.4 6 4.3 2.1 2.5 2.3 6 1.7 9.2 -0.6 3.2-1.9 6.2-2.4 9.4 -0.5 3.4-0.2 6.9 1 10.1 2.1-4.9 4-10.4 5.4-16.6C182.3 71.3 182.4 67.4 184.2 64.9z"/><path class="st4" d="M173.3 57.8c-2 0-3.6-1.6-3.6-3.6s1.6-3.6 3.6-3.6 3.6 1.6 3.6 3.6S175.3 57.8 173.3 57.8z"/><circle class="st5" cx="173.3" cy="54.2" r="2.6"/><circle class="st4" cx="174.6" cy="54.1" r="0.5"/><path class="st6" d="M177.5 59.1l9.4-7.9c0 0 10.5 7 9.4 10.1h-12.1L177.5 59.1z"/><path class="st7" d="M183.5 66l12.7-4.7c-1-1.1-2.9-1.4-4.4-1.3 -1.5 0.1-3.1 0.3-4.5-0.2 -0.8-0.3-1.4-0.8-2.2-1.2 -2.4-1.3-5.5-1-7.7 0.5L183.5 66z"/><path class="st2" d="M155.3 86.8c0 0-57.5 24.6-84.2 36.9 -26.7 12.2 43.5-35.8 43.5-35.8L155.3 86.8z"/><path class="st8" d="M83.3 102.2c0 0-53.5 48-75.8 68.8 0 0 1.9 1 11.2-3.3L108 90.3 83.3 102.2z"/><path class="st9" d="M21.5 158.2c0 0 68.4-49 88.4-58.5l-4.8-9.3 -21.7 11.9L21.5 158.2z"/><path class="st8" d="M78.6 102.3c0 0-4.1 3.9-9.7 10 -1.3 1.4 0.1 3.6 1.9 3.1 17.7-4.7 70.1-19.3 87.8-31.3l-2-10L82.9 100 78.6 102.3z"/><path class="st10" d="M91.9 86.4c0 0-11.1 10.9-16.5 17.4 -0.9 1.1 0.2 2.7 1.6 2.2l73.6-26.3 -22.2-5.1L91.9 86.4z"/><path class="st11" d="M113.1 71.3c0 0-15.9 9.6-30.3 23.1 -1.2 1.1 0.1 3 1.5 2.4l54-22L113.1 71.3z"/><path class="st2" d="M162.5 77.8c0 0-3.8-12.5-23.6-23.7l-2.4 2v5.7L162.5 77.8z"/><path class="st12" d="M136.6 56.1c0 0-16.8 10.9-28.6 18.4 -1.6 1-0.6 3.5 1.3 3.1l9.4-2.1c0.3-0.1 0.5 0.4 0.2 0.5l-1.4 0.7c-1.4 0.7-0.8 2.9 0.8 2.7l10.4-1.3c0.5-0.1 0.8 0.7 0.3 0.9l-2.9 1.5c-1.4 0.7-0.7 2.8 0.8 2.5l11.6-2c0.6-0.1 0.9 0.8 0.4 1.1l-4.9 2.6c-0.7 0.4-0.3 1.4 0.4 1.3l12.5-1.8 -4 3.4c-1 0.8-0.3 2.4 1 2.3l9.8-0.9c2.9-0.3 5.6-1.6 7.3-3.9C164.8 80.4 165.3 70.8 136.6 56.1z"/></g></g><g class="st0"><g class="st1"><polygon class="st13" points="25.4 156 21.1 159.7 27.3 158.6 86.8 115.2 64.7 119 25 153.5 "/><path class="st13" d="M129.7 117.8l0.5 6.2c0 0.3 0.3 0.6 0.6 0.6h1.9c0.5 0 0.8-0.4 0.8-0.9l-0.4-6.9L129.7 117.8z"/><path class="st13" d="M130.3 124.3l9.1 17c0 0 2.5 0.7 3.2-1.5l-9-16 -2.1-1.9L130.3 124.3z"/><path class="st13" d="M153.2 141.6c-0.4-0.4-0.9-0.7-1.5-0.8 -2.2-0.4-8.5-1.6-10.3-2.9 -2.1-1.5-3.5 0.8-3.5 0.8s-1.7 3.3-5 5.7c-1.8 1.3-3 3.3-3.1 5.5 0 0.1 0 0.2 0 0.2 0 0.2 0.3 0.2 0.3 0 0.5-1.8 1.8-2.6 2.6-2.9 0.4-0.2 0.8-0.5 1.1-0.8 1.4-1.2 4.8-4 7-4.2 2.8-0.2 6.6 2.8 6.6 2.8s0.7 0.5 1.3 1.3c0.1 0.2 0.4 0 0.3-0.1 -0.1-0.4-0.3-0.8-0.5-1.3 -0.3-0.4-0.6-0.8-1-1.1l-3.2-2.4c0 0 4.9-0.4 7.9 0.9 0.3 0.1 0.6 0.2 0.9 0.3 0.4 0.1 1 0.4 1.6 1 0.1 0.1 0.2 0 0.1-0.1C154.4 143 154 142.4 153.2 141.6z"/><path class="st13" d="M114.9 111.9l-0.5 6.1c0 0.3 0.2 0.6 0.5 0.7l1.7 0.3c0.4 0.1 0.8-0.3 0.9-0.7l0.6-6.8L114.9 111.9z"/><path class="st13" d="M114.5 118.3l5.7 18c0 0 2.1 1.1 3.1-1l-5.7-17.1L116 116 114.5 118.3z"/><path class="st13" d="M132.6 138.8c-0.3-0.5-0.7-0.8-1.2-1 -1.9-0.7-7.4-2.9-8.8-4.5 -1.7-1.9-3.3 0.2-3.3 0.2s-2 3-5.3 4.8c-1.8 1-3.2 2.7-3.6 4.8 0 0.1 0 0.2 0 0.2 0 0.2 0.2 0.3 0.3 0.1 0.7-1.6 2-2.2 2.7-2.4 0.4-0.1 0.8-0.3 1.1-0.6 1.4-1 4.9-3.2 6.9-3 2.5 0.3 5.5 3.8 5.5 3.8s0.6 0.6 1 1.4c0.1 0.2 0.3 0.1 0.3-0.1 0-0.4-0.1-0.8-0.3-1.3s-0.4-0.9-0.8-1.3l-2.5-2.9c0 0 4.5 0.4 6.9 2.1 0.2 0.2 0.5 0.3 0.7 0.4 0.4 0.2 0.9 0.6 1.3 1.2 0 0.1 0.1 0 0.1-0.1C133.4 140.4 133.1 139.7 132.6 138.8z"/><path class="st14" d="M176.7 54.2l0.3-1.8c0 0-8.2-19.9-28.3-12.4 -4.3 1.6-8.1 4.1-11.4 7.3l-9 8.8 0.9 1c-18.7 15.1-49.4 41-76.3 69 0 0 15.2-0.8 39.1-6 0 0 63.8 23.1 79.9-45.5 0.8-3.3 0.8-7 2.5-9.4l2-8.3 0 0 0 0 0.6-2.5L176.7 54.2z"/><path class="st15" d="M147.2 82.7c0 0 22.3 1.6-74.8 31.9l30.9-19.8 34-14.4L147.2 82.7z"/><path class="st15" d="M174.3 65.3l2-8.3 0 0 0.6-2.5 -0.2-0.2 0.3-1.8c0 0-8.2-19.9-28.3-12.4 -4.3 1.6-8.1 4.1-11.4 7.3l-5 4.8c2.2 2.9 5.7 4.9 9.2 6.1 4.4 1.5 9.1 2.2 13.5 3.7s8.7 4.3 10.6 8.5c1 2.2 1.2 4.6 1.8 6.9 0.4 1.8 1.1 3.6 2.3 5 0.8-2.4 1.5-5 2.1-7.8C172.5 71.3 172.6 67.6 174.3 65.3z"/><path class="st15" d="M29.6 146.2c0 0-1.3-0.3-22.4 19.4 0 0 1.8 1 10.6-3.2l84.5-73.2L29.6 146.2z"/><path class="st16" d="M20.7 153.3c0 0 64.3-46.1 83.2-55.1l-4.5-8.8 -20.6 11.2L20.7 153.3z"/><path class="st13" d="M73.3 99.9c0 0-3.9 3.7-9.2 9.5 -1.2 1.3 0.1 3.4 1.8 2.9 16.8-4.5 66.3-18.2 83.1-29.6l-1.9-9.5L77.4 97.7 73.3 99.9z"/><path class="st17" d="M85.9 84.8c0 0-10.5 10.3-15.6 16.5 -0.9 1 0.2 2.6 1.5 2.1l69.6-24.9 -21-4.8L85.9 84.8z"/><path class="st16" d="M105.9 70.5c0 0-15 9-28.7 21.9 -1.1 1 0 2.9 1.5 2.3l51-20.8L105.9 70.5z"/><path class="st16" d="M175.5 60.4l-4.2-1.7c0 0-8.1 3-13.7-2.2 -5.5-5.2-16.1 1.9-16.1 1.9s19.3 11.4 16.8 20.1c-2.5 8.5 8.2 10.9 8.2 10.9l0.7-0.1c1.8-4.3 3.4-9.2 4.6-14.6 0.8-3.3 0.8-7 2.5-9.4L175.5 60.4 175.5 60.4z"/><path class="st18" d="M128.2 56.2c0 0-15.9 10.3-27 17.4 -1.5 1-0.5 3.3 1.2 2.9l8.9-2c0.3-0.1 0.5 0.4 0.2 0.5l-1.3 0.7c-1.4 0.7-0.7 2.7 0.8 2.5l9.9-1.2c0.5-0.1 0.7 0.6 0.3 0.9l-2.8 1.4c-1.3 0.7-0.7 2.7 0.8 2.4l11-1.9c0.6-0.1 0.9 0.7 0.3 1l-4.7 2.5c-0.6 0.3-0.3 1.3 0.4 1.2l11.8-1.7 -3.7 3.2c-0.9 0.8-0.3 2.3 0.9 2.2l9.3-0.8c2.7-0.2 5.3-1.5 6.9-3.7C154.8 79.1 155.3 70 128.2 56.2z"/><path class="st13" d="M193.5 60.5c0 0-10.2 3.8-19.2 4.7 0 0-2.2-5.1-3.1-6.5l7.9-1.8L193.5 60.5z"/><path class="st17" d="M177 52.4c0 0 9.4 4.2 17 8.1 0 0-10.5-0.2-22.8-1.8C171.2 58.7 175.3 54.8 177 52.4z"/><path class="st4" d="M165.2 57.2c-1.9 0-3.4-1.5-3.4-3.4s1.5-3.4 3.4-3.4 3.4 1.5 3.4 3.4C168.7 55.7 167.1 57.2 165.2 57.2z"/><circle class="st5" cx="165.2" cy="53.8" r="2.5"/><circle class="st4" cx="166.4" cy="53.7" r="0.5"/></g></g><polygon class="st2" points="25.1 119.7 21.1 123.2 27 122.1 74 84.1 63 84.1 24.8 117.3 "/><path class="st2" d="M125.5 83l0.5 6c0 0.3 0.3 0.6 0.6 0.6h1.9c0.4 0 0.8-0.4 0.8-0.8l-0.4-6.6L125.5 83z"/><path class="st2" d="M126.1 89.2l8.7 16.3c0 0 2.4 0.7 3.1-1.5l-8.7-15.4 -2-1.8L126.1 89.2z"/><path class="st2" d="M148.2 105.8c-0.4-0.4-0.9-0.7-1.4-0.8 -2.1-0.4-8.2-1.6-9.9-2.8 -2.1-1.5-3.4 0.8-3.4 0.8s-1.6 3.2-4.8 5.5c-1.7 1.2-2.9 3.1-3 5.3 0 0.1 0 0.2 0 0.2 0 0.2 0.2 0.2 0.3 0 0.5-1.7 1.8-2.5 2.5-2.8 0.4-0.2 0.8-0.4 1.1-0.7 1.3-1.2 4.6-3.9 6.7-4 2.7-0.2 6.3 2.7 6.3 2.7s0.7 0.5 1.2 1.2c0.1 0.1 0.3 0 0.3-0.1 -0.1-0.4-0.3-0.8-0.5-1.2s-0.6-0.8-1-1.1l-3.1-2.3c0 0 4.7-0.4 7.6 0.8 0.3 0.1 0.6 0.2 0.8 0.3 0.4 0.1 1 0.4 1.5 1 0.1 0.1 0.1 0 0.1-0.1C149.3 107.2 148.9 106.6 148.2 105.8z"/><path class="st2" d="M111.3 77.2l-0.5 5.9c0 0.3 0.2 0.6 0.5 0.6L113 84c0.4 0.1 0.8-0.2 0.8-0.7l0.6-6.5L111.3 77.2z"/><path class="st2" d="M110.9 83.4l5.4 17.3c0 0 2 1.1 3-0.9l-5.5-16.4 -1.6-2.1L110.9 83.4z"/><path class="st2" d="M128.3 103.1c-0.3-0.4-0.7-0.8-1.2-1 -1.9-0.7-7.1-2.8-8.5-4.3 -1.6-1.8-3.2 0.2-3.2 0.2s-1.9 2.9-5.1 4.6c-1.7 0.9-3 2.6-3.5 4.7 0 0.1 0 0.2 0 0.2 0 0.2 0.2 0.2 0.3 0.1 0.7-1.6 2-2.1 2.6-2.3 0.4-0.1 0.7-0.3 1.1-0.5 1.4-0.9 4.7-3.1 6.6-2.9 2.4 0.2 5.3 3.6 5.3 3.6s0.6 0.6 0.9 1.4c0.1 0.2 0.3 0.1 0.3-0.1 0-0.4-0.1-0.8-0.3-1.3 -0.2-0.5-0.4-0.9-0.7-1.2l-2.4-2.8c0 0 4.3 0.4 6.7 2 0.2 0.2 0.5 0.3 0.7 0.4 0.3 0.2 0.8 0.5 1.2 1.2 0 0.1 0.1 0 0.1-0.1C129.1 104.7 128.8 104 128.3 103.1z"/><path class="st19" d="M170.7 21.8L171 20c0 0-7.8-19.1-27.3-11.9 -4.1 1.5-7.8 4-11 7l-8.7 8.4 0.8 1C107 39.1 77.4 64.1 51.5 90.9c0 0 14.6-0.8 37.6-5.7 0 0 61.4 22.2 76.9-43.8 0.8-3.2 0.8-6.8 2.4-9l1.9-8 0 0 0 0 0.6-2.4L170.7 21.8z"/><path class="st2" d="M142.4 49.1c0 0 21.5 1.6-71.9 30.7l29.7-19 32.7-13.9L142.4 49.1z"/><path class="st20" d="M168.4 32.4l1.9-8 0 0 0.6-2.4 -0.2-0.2L171 20c0 0-7.8-19.1-27.3-11.9 -4.1 1.5-7.8 4-11 7l-4.8 4.6c2.1 2.8 5.5 4.7 8.9 5.9 4.2 1.5 8.7 2.1 13 3.6 4.2 1.5 8.4 4.1 10.2 8.2 0.9 2.1 1.2 4.4 1.7 6.6 0.4 1.7 1.1 3.5 2.2 4.8 0.8-2.4 1.4-4.8 2.1-7.5C166.8 38.2 166.8 34.6 168.4 32.4z"/><path class="st4" d="M159.1 25.9c-1.8 0-3.3-1.5-3.3-3.3s1.5-3.3 3.3-3.3 3.3 1.5 3.3 3.3S161 25.9 159.1 25.9z"/><circle class="st5" cx="159.1" cy="22.6" r="2.4"/><circle class="st4" cx="160.3" cy="22.6" r="0.5"/><path class="st21" d="M76.6 66.3c0 0-48.7 43.7-69 62.7 0 0 1.7 0.9 10.2-3l81.3-70.4L76.6 66.3z"/><path class="st20" d="M20.3 117.3c0 0 62.3-44.6 80.5-53.3l-4.4-8.5L76.6 66.3 20.3 117.3z"/><path class="st22" d="M71.2 65.7c0 0-3.8 3.5-8.8 9.1 -1.1 1.3 0.1 3.2 1.7 2.8C80.2 73.3 127.9 60 144 49.1l-1.8-9.1 -67 23.6L71.2 65.7z"/><path class="st20" d="M83.4 51.2c0 0-10.1 9.9-15 15.8 -0.8 1 0.2 2.5 1.4 2l67-23.9 -20.2-4.6L83.4 51.2z"/><path class="st21" d="M102.6 37.4c0 0-14.5 8.7-27.6 21 -1.1 1 0 2.7 1.4 2.2l49.1-20L102.6 37.4z"/><path class="st2" d="M194.3 29.1c0 0-14.8 3.1-26.4 4.2 0 0-1.3-4.6-2.4-6.2l10.3-2.1L194.3 29.1z"/><path class="st23" d="M124.1 23.6c0 0-15.3 9.9-26 16.7 -1.5 0.9-0.5 3.2 1.2 2.8l8.6-1.9c0.3-0.1 0.4 0.4 0.2 0.5l-1.3 0.6c-1.3 0.6-0.7 2.6 0.7 2.4l9.5-1.2c0.5-0.1 0.7 0.6 0.3 0.8l-2.6 1.3c-1.3 0.6-0.6 2.6 0.8 2.3l10.6-1.8c0.6-0.1 0.8 0.7 0.3 1l-4.5 2.4c-0.6 0.3-0.3 1.3 0.4 1.2l11.4-1.6 -3.6 3.1c-0.9 0.8-0.3 2.2 0.9 2.1l8.9-0.8c2.6-0.2 5.1-1.5 6.7-3.6C149.7 45.7 150.2 37 124.1 23.6z"/><path class="st24" d="M171 20c0 0 14.1 4.7 24 9.1 0 0-13.6-0.2-29.5-2C165.5 27.1 168.9 22.7 171 20z"/></svg>